<?xml version="1.0" encoding="UTF-8"?>
<svg id="Layer_2" data-name="Layer 2" xmlns="http://www.w3.org/2000/svg" viewBox="0 0 334.1 53.94">
  <defs>
    <style>
      .cls-1 {
        fill: #231f20;
        stroke-width: 0px;
      }
    </style>
  </defs>
  <g id="Layer_1-2" data-name="Layer 1">
    <path class="cls-1" d="m21.76,53.94c-4.55,0-8.44-.92-11.69-2.76s-5.73-4.44-7.47-7.81c-1.74-3.37-2.6-7.35-2.6-11.94,0-3.43.5-6.52,1.49-9.27s2.42-5.1,4.28-7.07c1.86-1.96,4.14-3.47,6.85-4.53s5.76-1.58,9.15-1.58c2.27,0,4.5.29,6.7.87,2.19.58,4.11,1.41,5.77,2.48.87.54,1.45,1.19,1.74,1.95.29.77.35,1.51.19,2.23-.17.72-.51,1.33-1.02,1.83-.52.5-1.16.77-1.92.84s-1.6-.2-2.51-.77c-1.28-.83-2.67-1.43-4.15-1.8-1.49-.37-3-.56-4.53-.56-2.94,0-5.42.6-7.44,1.8-2.03,1.2-3.55,2.94-4.59,5.21-1.03,2.27-1.55,5.06-1.55,8.37s.52,6.06,1.55,8.37c1.03,2.32,2.56,4.07,4.59,5.27s4.5,1.8,7.44,1.8c1.57,0,3.12-.2,4.65-.59,1.53-.39,2.98-1,4.34-1.83.91-.54,1.72-.77,2.45-.71.72.06,1.33.32,1.83.77.5.46.83,1.02.99,1.71.17.68.12,1.39-.12,2.11-.25.72-.74,1.35-1.49,1.89-1.65,1.2-3.63,2.12-5.92,2.76s-4.62.96-6.97.96h-.04Z"/>
    <path class="cls-1" d="m48.17,53.81c-1.28,0-2.26-.36-2.95-1.08s-1.02-1.73-1.02-3.01V13.64c0-1.32.35-2.32,1.05-3.01.7-.68,1.69-1.02,2.98-1.02h14.94c4.79,0,8.49,1.15,11.1,3.44,2.6,2.29,3.91,5.51,3.91,9.64,0,2.69-.59,5-1.77,6.94s-2.88,3.43-5.11,4.46c-2.23,1.03-4.94,1.55-8.12,1.55l.56-.93h2.05c1.69,0,3.17.41,4.43,1.24s2.37,2.13,3.32,3.91l4.65,8.62c.5.87.72,1.72.68,2.54-.04.83-.35,1.5-.93,2.02s-1.43.77-2.54.77-2.03-.24-2.73-.71c-.7-.48-1.32-1.21-1.86-2.2l-6.26-11.53c-.74-1.4-1.62-2.35-2.63-2.82-1.01-.47-2.3-.71-3.88-.71h-5.89v13.89c0,1.28-.33,2.28-.99,3.01-.66.72-1.65,1.08-2.98,1.08h-.01Zm3.97-23.87h9.67c2.85,0,5.01-.59,6.48-1.77s2.2-2.94,2.2-5.3-.73-4.06-2.2-5.24c-1.47-1.18-3.63-1.77-6.48-1.77h-9.67v14.07h0Z"/>
    <path class="cls-1" d="m91.57,53.32c-1.36,0-2.41-.36-3.13-1.08-.72-.72-1.08-1.77-1.08-3.13V13.82c0-1.36.36-2.41,1.08-3.13s1.77-1.08,3.13-1.08h22.13c1.03,0,1.83.27,2.39.81s.84,1.3.84,2.29-.28,1.83-.84,2.39-1.35.84-2.39.84h-18.72v12.03h17.36c1.07,0,1.88.27,2.42.81.54.54.81,1.32.81,2.36s-.27,1.82-.81,2.36c-.54.54-1.34.81-2.42.81h-17.36v12.71h18.72c1.03,0,1.83.27,2.39.81s.84,1.32.84,2.36-.28,1.82-.84,2.36-1.35.81-2.39.81h-22.13v-.04Z"/>
    <path class="cls-1" d="m124.62,53.81c-.99,0-1.79-.23-2.39-.68s-.96-1.06-1.08-1.83c-.12-.76.02-1.62.43-2.57l16.37-36.27c.54-1.2,1.19-2.06,1.95-2.57.76-.52,1.64-.77,2.63-.77s1.81.26,2.57.77c.76.52,1.42,1.38,1.95,2.57l16.43,36.27c.45.95.62,1.82.5,2.6-.12.79-.48,1.4-1.05,1.83-.58.43-1.34.65-2.29.65-1.16,0-2.06-.28-2.7-.84s-1.21-1.42-1.71-2.57l-4.03-9.36,3.35,2.17h-26.16l3.35-2.17-3.97,9.36c-.54,1.2-1.1,2.07-1.67,2.6-.58.54-1.41.81-2.48.81h0Zm17.79-35.59l-8.68,20.65-1.61-1.98h20.71l-1.55,1.98-8.74-20.65h-.13Z"/>
    <path class="cls-1" d="m180.61,53.81c-1.28,0-2.26-.36-2.95-1.08-.68-.72-1.02-1.73-1.02-3.01V16.24h-12.09c-1.08,0-1.91-.3-2.51-.9-.6-.6-.9-1.42-.9-2.45s.3-1.89.9-2.45c.6-.56,1.44-.84,2.51-.84h32.12c1.07,0,1.91.28,2.51.84.6.56.9,1.37.9,2.45s-.3,1.85-.9,2.45-1.44.9-2.51.9h-12.09v33.48c0,1.28-.33,2.28-.99,3.01-.66.72-1.65,1.08-2.98,1.08Z"/>
    <path class="cls-1" d="m224,53.94c-3.02,0-5.67-.39-7.97-1.18s-4.23-1.95-5.8-3.5-2.75-3.48-3.53-5.8c-.79-2.31-1.18-5-1.18-8.06V13.14c0-1.36.34-2.38,1.02-3.04.68-.66,1.66-.99,2.95-.99s2.26.33,2.95.99c.68.66,1.02,1.67,1.02,3.04v22.2c0,3.93.9,6.87,2.7,8.83,1.8,1.96,4.41,2.94,7.84,2.94s6.03-.98,7.81-2.94,2.67-4.91,2.67-8.83V13.14c0-1.36.34-2.38,1.02-3.04.68-.66,1.66-.99,2.95-.99s2.2.33,2.88.99c.68.66,1.02,1.67,1.02,3.04v22.26c0,4.05-.69,7.46-2.08,10.23s-3.44,4.85-6.17,6.23c-2.73,1.39-6.1,2.08-10.11,2.08h0Z"/>
    <path class="cls-1" d="m248,53.81c-.99,0-1.79-.23-2.39-.68s-.96-1.06-1.08-1.83c-.12-.76.02-1.62.43-2.57l16.37-36.27c.54-1.2,1.19-2.06,1.95-2.57.76-.52,1.64-.77,2.63-.77s1.81.26,2.57.77c.76.52,1.42,1.38,1.95,2.57l16.43,36.27c.45.95.62,1.82.5,2.6-.12.79-.48,1.4-1.05,1.83-.58.43-1.34.65-2.29.65-1.16,0-2.06-.28-2.7-.84s-1.21-1.42-1.71-2.57l-4.03-9.36,3.35,2.17h-26.16l3.35-2.17-3.97,9.36c-.54,1.2-1.1,2.07-1.67,2.6-.58.54-1.41.81-2.48.81h0Zm17.79-35.59l-8.68,20.65-1.61-1.98h20.71l-1.55,1.98-8.74-20.65h-.13Z"/>
    <path class="cls-1" d="m297.1,53.32c-1.28,0-2.27-.36-2.98-1.08-.7-.72-1.05-1.73-1.05-3.01V13.45c0-1.32.34-2.32,1.02-3.01s1.66-1.02,2.95-1.02,2.26.34,2.94,1.02,1.02,1.68,1.02,3.01v33.11h17.98c1.12,0,1.97.29,2.57.87.6.58.9,1.41.9,2.48s-.3,1.91-.9,2.51-1.46.9-2.57.9h-21.89,0Z"/>
    <path class="cls-1" d="m327.32,13.56c-3.74,0-6.78-3.04-6.78-6.78s3.04-6.78,6.78-6.78,6.78,3.04,6.78,6.78-3.04,6.78-6.78,6.78Zm0-11.57c-2.64,0-4.78,2.15-4.78,4.78s2.15,4.78,4.78,4.78,4.78-2.15,4.78-4.78-2.15-4.78-4.78-4.78Z"/>
  </g>
</svg>