<?xml version="1.0" encoding="UTF-8"?><svg id="Layer_2" xmlns="http://www.w3.org/2000/svg" viewBox="0 0 787.08 114.8"><defs><style>.cls-1{fill:#fff;}</style></defs><g id="Layer_1-2"><g><g><path class="cls-1" d="M43.77,114.8c-9.17,0-17.02-1.94-23.54-5.82-6.53-3.88-11.53-9.39-15.01-16.53-3.48-7.14-5.22-15.65-5.22-25.52,0-7.41,.99-14.04,2.97-19.9,1.98-5.86,4.85-10.84,8.6-14.94,3.75-4.1,8.35-7.27,13.82-9.52,5.47-2.25,11.59-3.37,18.38-3.37,5.46,0,10.67,.77,15.6,2.31,4.94,1.54,9.21,3.81,12.83,6.81,1.15,.88,1.92,1.87,2.32,2.98,.4,1.1,.44,2.16,.13,3.17-.31,1.01-.84,1.85-1.59,2.51-.75,.66-1.65,.99-2.71,.99s-2.25-.44-3.57-1.32c-3.17-2.56-6.66-4.45-10.45-5.69-3.79-1.23-7.89-1.85-12.3-1.85-6.97,0-12.87,1.48-17.72,4.43-4.85,2.95-8.51,7.25-10.98,12.89-2.47,5.64-3.7,12.48-3.7,20.5s1.23,14.88,3.7,20.56c2.47,5.69,6.13,10.01,10.98,12.96,4.85,2.95,10.75,4.43,17.72,4.43,4.32,0,8.42-.64,12.3-1.92,3.88-1.28,7.45-3.19,10.71-5.75,1.32-.88,2.51-1.3,3.57-1.26,1.06,.04,1.94,.38,2.64,.99,.71,.62,1.21,1.41,1.52,2.38,.31,.97,.31,1.98,0,3.04-.31,1.06-.99,1.98-2.05,2.78-3.7,3.17-8.05,5.58-13.03,7.21-4.98,1.63-10.29,2.45-15.93,2.45Z"/><path class="cls-1" d="M109.76,114.54c-1.76,0-3.11-.51-4.03-1.52-.93-1.01-1.39-2.4-1.39-4.17V25.94c0-1.85,.48-3.24,1.45-4.17,.97-.93,2.34-1.39,4.1-1.39h31.34c9.96,0,17.63,2.34,23.01,7.01,5.38,4.67,8.07,11.33,8.07,19.97,0,5.47-1.21,10.21-3.64,14.22-2.43,4.01-5.97,7.05-10.65,9.12-4.67,2.07-10.27,3.11-16.8,3.11l1.32-1.72h2.64c3.44,0,6.44,.88,8.99,2.64,2.56,1.76,4.89,4.59,7.01,8.46l12.69,23.67c.71,1.24,1.04,2.45,.99,3.64-.05,1.19-.46,2.16-1.26,2.91-.79,.75-1.94,1.12-3.44,1.12s-2.73-.35-3.7-1.06c-.97-.71-1.81-1.72-2.51-3.04l-14.41-26.71c-2.03-3.79-4.36-6.32-7.01-7.6-2.65-1.28-6.13-1.92-10.45-1.92h-16.93v34.65c0,1.76-.44,3.15-1.32,4.17-.88,1.01-2.25,1.52-4.1,1.52Zm5.42-48.93h24.47c7.23,0,12.69-1.52,16.4-4.56,3.7-3.04,5.55-7.6,5.55-13.69s-1.85-10.38-5.55-13.42c-3.7-3.04-9.17-4.56-16.4-4.56h-24.47v36.24Z"/><path class="cls-1" d="M210.66,113.61c-1.94,0-3.42-.51-4.43-1.52-1.01-1.01-1.52-2.49-1.52-4.43V26.33c0-1.94,.51-3.42,1.52-4.43,1.01-1.01,2.49-1.52,4.43-1.52h49.19c1.5,0,2.64,.4,3.44,1.19,.79,.79,1.19,1.9,1.19,3.31,0,1.5-.4,2.65-1.19,3.44-.79,.79-1.94,1.19-3.44,1.19h-44.57V61.77h41.79c1.5,0,2.65,.38,3.44,1.12,.79,.75,1.19,1.87,1.19,3.37s-.4,2.64-1.19,3.44c-.79,.79-1.94,1.19-3.44,1.19h-41.79v33.59h44.57c1.5,0,2.64,.4,3.44,1.19,.79,.79,1.19,1.9,1.19,3.31,0,1.5-.4,2.64-1.19,3.44s-1.94,1.19-3.44,1.19h-49.19Z"/><path class="cls-1" d="M289.88,114.54c-1.41,0-2.53-.33-3.37-.99-.84-.66-1.32-1.54-1.45-2.65-.13-1.1,.11-2.36,.73-3.77l36.37-82.79c.79-1.76,1.74-3.02,2.84-3.77,1.1-.75,2.31-1.12,3.64-1.12s2.53,.38,3.64,1.12c1.1,.75,2,2.01,2.71,3.77l36.5,82.79c.71,1.41,.99,2.69,.86,3.83-.13,1.15-.6,2.03-1.39,2.65-.79,.62-1.9,.93-3.31,.93-1.59,0-2.87-.42-3.83-1.26-.97-.84-1.76-2.05-2.38-3.64l-9.79-22.61,5.29,2.78h-56.87l5.42-2.78-9.65,22.61c-.79,1.68-1.63,2.91-2.51,3.7-.88,.79-2.03,1.19-3.44,1.19Zm38.62-81.46l-21.29,50.12-3.17-2.51h48.93l-2.91,2.51-21.29-50.12h-.26Z"/><path class="cls-1" d="M418.42,114.54c-1.68,0-3-.51-3.97-1.52-.97-1.01-1.45-2.4-1.45-4.17V29.77h-29.76c-1.59,0-2.82-.44-3.7-1.32-.88-.88-1.32-2.03-1.32-3.44,0-1.5,.44-2.64,1.32-3.44,.88-.79,2.12-1.19,3.7-1.19h70.49c1.59,0,2.82,.4,3.7,1.19,.88,.79,1.32,1.94,1.32,3.44s-.44,2.67-1.32,3.5c-.88,.84-2.12,1.26-3.7,1.26h-29.75V108.85c0,1.76-.46,3.15-1.39,4.17-.93,1.01-2.32,1.52-4.17,1.52Z"/><path class="cls-1" d="M522.36,114.8c-6.17,0-11.57-.82-16.2-2.45-4.63-1.63-8.53-4.05-11.7-7.27-3.17-3.22-5.55-7.21-7.14-11.97-1.59-4.76-2.38-10.23-2.38-16.4V25.01c0-1.85,.46-3.24,1.39-4.17,.93-.92,2.27-1.39,4.03-1.39s3.11,.46,4.03,1.39c.93,.93,1.39,2.31,1.39,4.17v51.18c0,9.7,2.25,16.95,6.74,21.75,4.5,4.81,11.11,7.21,19.84,7.21s15.3-2.4,19.71-7.21c4.41-4.8,6.61-12.05,6.61-21.75V25.01c0-1.85,.48-3.24,1.45-4.17,.97-.92,2.34-1.39,4.1-1.39,1.67,0,2.98,.46,3.9,1.39,.93,.93,1.39,2.31,1.39,4.17v51.71c0,8.2-1.39,15.16-4.16,20.89-2.78,5.73-6.94,10.03-12.5,12.89-5.55,2.87-12.39,4.3-20.5,4.3Z"/><path class="cls-1" d="M584.52,114.54c-1.41,0-2.53-.33-3.37-.99-.84-.66-1.32-1.54-1.45-2.65-.13-1.1,.11-2.36,.73-3.77l36.37-82.79c.79-1.76,1.74-3.02,2.84-3.77,1.1-.75,2.31-1.12,3.64-1.12s2.53,.38,3.64,1.12c1.1,.75,2,2.01,2.71,3.77l36.5,82.79c.71,1.41,.99,2.69,.86,3.83-.13,1.15-.6,2.03-1.39,2.65-.79,.62-1.9,.93-3.31,.93-1.59,0-2.87-.42-3.83-1.26-.97-.84-1.76-2.05-2.38-3.64l-9.79-22.61,5.29,2.78h-56.87l5.42-2.78-9.65,22.61c-.79,1.68-1.63,2.91-2.51,3.7-.88,.79-2.03,1.19-3.44,1.19Zm38.62-81.46l-21.29,50.12-3.17-2.51h48.93l-2.91,2.51-21.29-50.12h-.26Z"/><path class="cls-1" d="M700.36,113.61c-1.76,0-3.13-.51-4.1-1.52-.97-1.01-1.45-2.4-1.45-4.17V25.41c0-1.85,.46-3.26,1.39-4.23,.93-.97,2.27-1.45,4.03-1.45s3.11,.49,4.03,1.45c.93,.97,1.39,2.38,1.39,4.23V104.09h43.38c1.58,0,2.82,.42,3.7,1.26,.88,.84,1.32,2.01,1.32,3.5s-.44,2.67-1.32,3.5c-.88,.84-2.12,1.26-3.7,1.26h-48.67Z"/></g><path class="cls-1" d="M772.62,28.94c-7.98,0-14.47-6.49-14.47-14.47s6.49-14.47,14.47-14.47,14.47,6.49,14.47,14.47-6.49,14.47-14.47,14.47Zm0-24.67c-5.63,0-10.2,4.58-10.2,10.2s4.58,10.2,10.2,10.2,10.2-4.58,10.2-10.2-4.58-10.2-10.2-10.2Z"/></g></g></svg>