<svg width="38" height="38" viewBox="0 0 38 38" fill="none" xmlns="http://www.w3.org/2000/svg">
<circle cx="19" cy="19" r="18.5" stroke="white"/>
<path d="M13.7006 30H9.34688V15.9794H13.7006V30ZM11.5214 14.0668C10.1292 14.0668 9 12.9137 9 11.5215C9 10.8527 9.26565 10.2114 9.7385 9.73852C10.2114 9.26565 10.8527 9 11.5214 9C12.1901 9 12.8315 9.26565 13.3043 9.73852C13.7772 10.2114 14.0428 10.8527 14.0428 11.5215C14.0428 12.9137 12.9131 14.0668 11.5214 14.0668ZM29.9953 30H25.6509V23.1748C25.6509 21.5482 25.6181 19.4623 23.3873 19.4623C21.1237 19.4623 20.7769 21.2295 20.7769 23.0577V30H16.4278V15.9794H20.6034V17.8919H20.6644C21.2456 16.7903 22.6655 15.6278 24.7838 15.6278C29.19 15.6278 30 18.5294 30 22.2983V30H29.9953Z" fill="white"/>
</svg>
