<svg width="38" height="38" viewBox="0 0 38 38" fill="none" xmlns="http://www.w3.org/2000/svg">
<circle cx="19" cy="19" r="18.5" stroke="white"/>
<path d="M19.5023 13.8723C16.5228 13.8723 14.1194 16.1617 14.1194 19C14.1194 21.8383 16.5228 24.1277 19.5023 24.1277C22.4819 24.1277 24.8853 21.8383 24.8853 19C24.8853 16.1617 22.4819 13.8723 19.5023 13.8723ZM19.5023 22.3337C17.5769 22.3337 16.0027 20.8387 16.0027 19C16.0027 17.1613 17.5722 15.6663 19.5023 15.6663C21.4325 15.6663 23.002 17.1613 23.002 19C23.002 20.8387 21.4278 22.3337 19.5023 22.3337ZM26.361 13.6625C26.361 14.3275 25.7988 14.8585 25.1055 14.8585C24.4074 14.8585 23.8499 14.323 23.8499 13.6625C23.8499 13.002 24.4121 12.4665 25.1055 12.4665C25.7988 12.4665 26.361 13.002 26.361 13.6625ZM29.9262 14.8764C29.8466 13.2742 29.4624 11.8551 28.2303 10.6858C27.0028 9.51657 25.5131 9.15062 23.8312 9.07029C22.0978 8.97657 16.9022 8.97657 15.1688 9.07029C13.4916 9.14616 12.0018 9.51211 10.7697 10.6814C9.53759 11.8506 9.15811 13.2698 9.07379 14.8719C8.9754 16.5232 8.9754 21.4724 9.07379 23.1236C9.15343 24.7258 9.53759 26.1449 10.7697 27.3142C12.0018 28.4834 13.4869 28.8494 15.1688 28.9297C16.9022 29.0234 22.0978 29.0234 23.8312 28.9297C25.5131 28.8538 27.0028 28.4879 28.2303 27.3142C29.4577 26.1449 29.8419 24.7258 29.9262 23.1236C30.0246 21.4724 30.0246 16.5276 29.9262 14.8764ZM27.6868 24.8953C27.3214 25.7701 26.614 26.4439 25.6911 26.7965C24.309 27.3186 21.0296 27.1981 19.5023 27.1981C17.9751 27.1981 14.691 27.3142 13.3136 26.7965C12.3954 26.4484 11.688 25.7745 11.3178 24.8953C10.7697 23.5788 10.8962 20.4549 10.8962 19C10.8962 17.5451 10.7744 14.4167 11.3178 13.1047C11.6833 12.2299 12.3907 11.5561 13.3136 11.2035C14.6956 10.6814 17.9751 10.8019 19.5023 10.8019C21.0296 10.8019 24.3137 10.6858 25.6911 11.2035C26.6093 11.5516 27.3167 12.2255 27.6868 13.1047C28.235 14.4212 28.1085 17.5451 28.1085 19C28.1085 20.4549 28.235 23.5833 27.6868 24.8953Z" fill="white"/>
</svg>
